# xmcd
#
# Track frame offsets:
#	150
#	18584
#	38633
#	61413
#	79345
#	99001
#	125774
#	153699
#	164249
#	186131
#	203785
#	224318
#	247652
#	265735
#	281739
#
# Disc length: 3996 seconds
#
# Revision: 1
# Processed by: cddbd v1.5.1PL0 Copyright (c) Steve Scherf et al.
# Submitted via: audiograbber 1.83.01
#
DISCID=d50f9a0f
DTITLE=Ultimate Moods To Chillout - CD 9
DYEAR=2003
DGENRE=Ambient
TTITLE0=Mary Mc Dowell - Paint The Sky With Stars
TTITLE1=Romana - Mystical Monastery
TTITLE2=Dragon - Weather Storm
TTITLE3=Jennifer Ryan - Adia
TTITLE4=Mario Barchetta - L´Abitudine
TTITLE5=Tumeric - Not Enuff Love
TTITLE6=Sharon Tully - Eallin Life
TTITLE7=Levantis and Friends - Highlanders
TTITLE8=Mburu - Antilope Dance
TTITLE9=Nancy Carr - Druids In The Sky
TTITLE10=Waititu - Masai Mara
TTITLE11=Ross Linley - The Poet Of Sligo
TTITLE12=Tacoa - Spiritual Kiva
TTITLE13=Claudia Ponte - Nella Fantasia
TTITLE14=Mario Barchetta - Mille Lune Mille Onde
EXTD=
EXTT0=
EXTT1=
EXTT2=
EXTT3=
EXTT4=
EXTT5=
EXTT6=
EXTT7=
EXTT8=
EXTT9=
EXTT10=
EXTT11=
EXTT12=
EXTT13=
EXTT14=
PLAYORDER=
